<?xml version="1.0" encoding="UTF-8" standalone="no"?>
<!-- Created with Inkscape (http://www.inkscape.org/) -->

<svg
   version="1.1"
   id="svg2"
   xml:space="preserve"
   width="74.666664"
   height="74.666664"
   viewBox="0 0 74.666664 74.666664"
   sodipodi:docname="by.svg"
   inkscape:version="1.1.1 (3bf5ae0d25, 2021-09-20, custom)"
   xmlns:inkscape="http://www.inkscape.org/namespaces/inkscape"
   xmlns:sodipodi="http://sodipodi.sourceforge.net/DTD/sodipodi-0.dtd"
   xmlns="http://www.w3.org/2000/svg"
   xmlns:svg="http://www.w3.org/2000/svg"><defs
     id="defs6" /><sodipodi:namedview
     id="namedview4"
     pagecolor="#ffffff"
     bordercolor="#666666"
     borderopacity="1.0"
     inkscape:pageshadow="2"
     inkscape:pageopacity="0.0"
     inkscape:pagecheckerboard="0"
     showgrid="false"
     inkscape:zoom="8.3571431"
     inkscape:cx="37.273503"
     inkscape:cy="37.333332"
     inkscape:window-width="1920"
     inkscape:window-height="1007"
     inkscape:window-x="0"
     inkscape:window-y="0"
     inkscape:window-maximized="1"
     inkscape:current-layer="g8" /><g
     id="g8"
     inkscape:groupmode="layer"
     inkscape:label="by"
     transform="matrix(1.3333333,0,0,-1.3333333,0,74.666667)"><g
       id="g10"
       transform="scale(0.1)"><path
         d="m 279.551,553.531 c 77.191,0 142.285,-26.496 195.273,-79.488 53.313,-53.316 79.977,-118.406 79.977,-195.273 0,-77.2 -26.172,-141.469 -78.508,-192.8169 C 420.684,31.3164 355.105,4.01562 279.551,4.01562 205.293,4.01562 140.859,31 86.2383,84.9727 32.2695,138.941 5.28125,203.535 5.28125,278.77 c 0,75.23 26.98825,140.324 80.95705,195.273 52.9917,52.992 117.4257,79.488 193.3127,79.488 z m 0.98,-49.554 c -62.48,0 -115.301,-21.922 -158.476,-65.75 C 77.2344,392.434 54.8398,339.281 54.8398,278.77 c 0,-60.84 22.2344,-113.504 66.7222,-157.985 44.485,-44.4842 97.469,-66.7264 158.969,-66.7264 61.164,0 114.481,22.4023 159.949,67.2144 43.176,41.539 64.766,94.039 64.766,157.497 0,62.476 -21.922,115.625 -65.75,159.457 -43.832,43.828 -96.82,65.75 -158.965,65.75 z M 354.125,346.969 V 234.613 H 322.727 V 101.164 h -85.372 v 133.449 h -31.402 v 112.356 c 0,4.906 1.719,9.078 5.152,12.511 3.438,3.434 7.606,5.153 12.512,5.153 h 112.848 c 4.574,0 8.664,-1.719 12.265,-5.153 3.594,-3.433 5.395,-7.605 5.395,-12.511 z m -112.352,70.652 c 0,25.836 12.754,38.762 38.266,38.762 25.512,0 38.273,-12.926 38.273,-38.762 0,-25.512 -12.761,-38.269 -38.273,-38.269 -25.512,0 -38.266,12.757 -38.266,38.269"
         style="fill:#000000;fill-opacity:1;fill-rule:nonzero;stroke:none"
         id="path12" /></g></g></svg>
