<?xml version="1.0" encoding="UTF-8" standalone="no"?>
<!-- Created with Inkscape (http://www.inkscape.org/) -->

<svg
   version="1.1"
   id="svg2"
   xml:space="preserve"
   width="74.666664"
   height="74.666664"
   viewBox="0 0 74.666664 74.666664"
   sodipodi:docname="cc.svg"
   inkscape:version="1.1.1 (3bf5ae0d25, 2021-09-20, custom)"
   xmlns:inkscape="http://www.inkscape.org/namespaces/inkscape"
   xmlns:sodipodi="http://sodipodi.sourceforge.net/DTD/sodipodi-0.dtd"
   xmlns="http://www.w3.org/2000/svg"
   xmlns:svg="http://www.w3.org/2000/svg"><defs
     id="defs6" /><sodipodi:namedview
     id="namedview4"
     pagecolor="#ffffff"
     bordercolor="#666666"
     borderopacity="1.0"
     inkscape:pageshadow="2"
     inkscape:pageopacity="0.0"
     inkscape:pagecheckerboard="0"
     showgrid="false"
     inkscape:zoom="8.3571431"
     inkscape:cx="37.273503"
     inkscape:cy="37.333332"
     inkscape:window-width="1920"
     inkscape:window-height="1007"
     inkscape:window-x="0"
     inkscape:window-y="0"
     inkscape:window-maximized="1"
     inkscape:current-layer="g8" /><g
     id="g8"
     inkscape:groupmode="layer"
     inkscape:label="cc"
     transform="matrix(1.3333333,0,0,-1.3333333,0,74.666667)"><g
       id="g10"
       transform="scale(0.1)"><path
         d="m 279.551,553.531 c 76.859,0 142.285,-26.828 196.254,-80.469 25.836,-25.839 45.461,-55.363 58.879,-88.558 13.406,-33.203 20.117,-68.445 20.117,-105.734 0,-37.618 -6.625,-72.856 -19.875,-105.731 C 521.68,140.168 502.129,111.133 476.293,85.9531 449.473,59.457 419.055,39.1719 385.039,25.1133 351.016,11.0469 315.859,4.01562 279.551,4.01562 243.242,4.01562 208.484,10.957 175.289,24.8672 142.086,38.7656 112.32,58.8828 85.9922,85.2148 59.6562,111.539 39.6289,141.227 25.8906,174.262 12.1523,207.301 5.28125,242.133 5.28125,278.77 c 0,36.308 6.94535,71.218 20.85545,104.75 13.8985,33.527 34.0977,63.542 60.5938,90.035 52.3285,53.308 116.6015,79.976 192.8205,79.976 z m 0.98,-49.554 c -62.801,0 -115.629,-21.922 -158.476,-65.75 -21.586,-21.918 -38.1917,-46.532 -49.7972,-73.84 -11.6172,-27.317 -17.418,-55.856 -17.418,-85.617 0,-29.438 5.8008,-57.817 17.418,-85.122 11.6055,-27.32 28.2112,-51.691 49.7972,-73.105 21.59,-21.4336 45.953,-37.7852 73.105,-49.0664 27.145,-11.2852 55.602,-16.9258 85.371,-16.9258 29.442,0 57.969,5.7187 85.617,17.1719 27.637,11.4453 52.575,27.9648 74.825,49.5503 42.843,41.868 64.273,94.368 64.273,157.497 0,30.418 -5.566,59.199 -16.687,86.351 -11.121,27.149 -27.313,51.348 -48.571,72.617 -44.156,44.157 -97.312,66.239 -159.457,66.239 z m -3.437,-179.579 -36.797,-19.132 c -3.926,8.172 -8.754,13.898 -14.473,17.172 -5.726,3.265 -11.039,4.906 -15.945,4.906 -24.531,0 -36.797,-16.192 -36.797,-48.574 0,-14.715 3.106,-26.497 9.32,-35.325 6.211,-8.832 15.371,-13.25 27.477,-13.25 16.023,0 27.309,7.852 33.855,23.555 l 33.856,-17.172 c -7.199,-13.418 -17.176,-23.965 -29.934,-31.644 -12.754,-7.692 -26.82,-11.536 -42.191,-11.536 -24.531,0 -44.328,7.524 -59.367,22.571 -15.047,15.043 -22.575,35.98 -22.575,62.801 0,26.168 7.61,46.933 22.821,62.316 15.211,15.371 34.418,23.055 57.644,23.055 34.02,0 58.391,-13.246 73.106,-39.743 z m 158.476,0 -36.3,-19.132 c -3.926,8.172 -8.758,13.898 -14.481,17.172 -5.727,3.265 -11.203,4.906 -16.434,4.906 -24.531,0 -36.796,-16.192 -36.796,-48.574 0,-14.715 3.105,-26.497 9.32,-35.325 6.211,-8.832 15.371,-13.25 27.476,-13.25 16.024,0 27.309,7.852 33.852,23.555 l 34.348,-17.172 c -7.532,-13.418 -17.664,-23.965 -30.422,-31.644 -12.754,-7.692 -26.66,-11.536 -41.703,-11.536 -24.86,0 -44.735,7.524 -59.61,22.571 -14.886,15.043 -22.324,35.98 -22.324,62.801 0,26.168 7.602,46.933 22.813,62.316 15.211,15.371 34.421,23.055 57.652,23.055 34.012,0 58.215,-13.246 72.609,-39.743"
         style="fill:#000000;fill-opacity:1;fill-rule:nonzero;stroke:none"
         id="path12" /></g></g></svg>
