<?xml version="1.0" encoding="UTF-8" standalone="no"?>
<!-- Created with Inkscape (http://www.inkscape.org/) -->

<svg
   version="1.1"
   id="svg2"
   xml:space="preserve"
   width="73.26667"
   height="73.26667"
   viewBox="0 0 73.26667 73.26667"
   sodipodi:docname="sa.svg"
   inkscape:version="1.1.1 (3bf5ae0d25, 2021-09-20, custom)"
   xmlns:inkscape="http://www.inkscape.org/namespaces/inkscape"
   xmlns:sodipodi="http://sodipodi.sourceforge.net/DTD/sodipodi-0.dtd"
   xmlns="http://www.w3.org/2000/svg"
   xmlns:svg="http://www.w3.org/2000/svg"><defs
     id="defs6" /><sodipodi:namedview
     id="namedview4"
     pagecolor="#ffffff"
     bordercolor="#666666"
     borderopacity="1.0"
     inkscape:pageshadow="2"
     inkscape:pageopacity="0.0"
     inkscape:pagecheckerboard="0"
     showgrid="false"
     inkscape:zoom="8.5168331"
     inkscape:cx="36.574628"
     inkscape:cy="36.633335"
     inkscape:window-width="1920"
     inkscape:window-height="1007"
     inkscape:window-x="0"
     inkscape:window-y="0"
     inkscape:window-maximized="1"
     inkscape:current-layer="g8" /><g
     id="g8"
     inkscape:groupmode="layer"
     inkscape:label="sa"
     transform="matrix(1.3333333,0,0,-1.3333333,0,73.266667)"><g
       id="g10"
       transform="scale(0.1)"><path
         d="m 274.27,549.512 c 76.859,0 141.953,-26.66 195.273,-79.977 53.309,-52.988 79.973,-117.918 79.973,-194.777 0,-76.871 -26.172,-141.305 -78.504,-193.3127 C 415.734,27.1445 350.148,0 274.27,0 200.012,0 135.578,26.9844 80.957,80.9531 26.9883,134.922 0,199.516 0,274.758 c 0,74.894 26.9883,139.828 80.957,194.777 53.313,53.317 117.75,79.977 193.313,79.977 z m 0.98,-49.555 c -62.48,0 -115.305,-22.074 -158.477,-66.234 C 71.9531,388.254 49.5547,335.266 49.5547,274.758 49.5547,213.586 71.793,160.93 116.281,116.77 160.762,72.2812 213.75,50.043 275.25,50.043 c 61.16,0 114.477,22.3984 159.945,67.219 43.18,41.863 64.766,94.363 64.766,157.496 0,62.801 -21.918,115.789 -65.746,158.965 -43.508,44.16 -96.496,66.234 -158.965,66.234 z M 152.59,313.516 c 5.226,33.687 18.801,59.777 40.722,78.257 21.907,18.477 48.575,27.719 79.973,27.719 43.176,0 77.52,-13.906 103.035,-41.703 25.512,-27.805 38.27,-63.461 38.27,-106.961 0,-42.195 -13.246,-77.273 -39.742,-105.242 -26.493,-27.965 -60.84,-41.949 -103.036,-41.949 -31.078,0 -57.894,9.324 -80.464,27.968 -22.567,18.645 -36.141,45.137 -40.723,79.485 h 69.18 c 1.636,-33.363 21.75,-50.043 60.351,-50.043 19.293,0 34.836,8.34 46.606,25.019 11.777,16.684 17.668,38.918 17.668,66.727 0,29.105 -5.395,51.269 -16.192,66.48 -10.797,15.211 -26.332,22.817 -46.613,22.817 -36.633,0 -57.238,-16.192 -61.82,-48.574 h 20.117 L 185.461,259.055 131,313.516 h 21.59"
         style="fill:#000000;fill-opacity:1;fill-rule:nonzero;stroke:none"
         id="path12" /></g></g></svg>
